<svg width="143" height="57" viewBox="0 0 143 57" fill="none" xmlns="http://www.w3.org/2000/svg">
<path d="M14.857 34.708C16.495 34.708 17.852 34.348 18.927 33.628C20.002 32.907 20.54 31.859 20.54 30.484C20.457 28.629 19.076 27.238 16.396 26.311L14.956 25.714C14.642 25.614 14.418 25.516 14.286 25.416C14.225 25.3748 14.1751 25.3192 14.1405 25.2542C14.106 25.1891 14.088 25.1166 14.088 25.043C14.088 24.629 14.361 24.423 14.907 24.423C15.585 24.423 16.089 24.77 16.42 25.466L20.118 24.422C19.225 22.202 17.504 21.093 14.956 21.093C13.434 21.093 12.168 21.491 11.159 22.286C10.15 23.08 9.645 24.116 9.645 25.39C9.645 25.788 9.703 26.156 9.819 26.496C9.935 26.836 10.109 27.134 10.34 27.39C10.572 27.647 10.795 27.87 11.01 28.061C11.225 28.251 11.498 28.43 11.83 28.595C12.16 28.761 12.412 28.881 12.586 28.955C12.76 29.03 12.996 29.117 13.293 29.216L13.715 29.366L15.205 29.912C15.568 30.045 15.805 30.156 15.912 30.247C15.9643 30.2909 16.0059 30.3461 16.0336 30.4085C16.0613 30.4709 16.0745 30.5388 16.072 30.607C16.072 31.038 15.668 31.254 14.857 31.254C13.666 31.254 12.954 30.724 12.723 29.664L9 30.509C9.463 33.309 11.416 34.709 14.857 34.709V34.708ZM26.493 34.708C28.131 34.708 29.338 34.078 30.116 32.82V34.435H35.228V21.366H30.116V28.522C30.116 29.996 29.611 30.732 28.602 30.732C27.576 30.732 27.063 29.996 27.063 28.522V21.366H21.951V29.019C21.951 32.812 23.465 34.709 26.493 34.709V34.708ZM42.596 34.435V27.28C42.596 25.805 43.1 25.068 44.109 25.068C45.135 25.068 45.649 25.805 45.649 27.28V34.435H50.76V26.783C50.76 22.99 49.247 21.093 46.219 21.093C44.581 21.093 43.373 21.723 42.596 22.981V21.366H37.483V34.435H42.596V34.435ZM57.979 34.435V27.28C57.979 25.805 58.483 25.068 59.493 25.068C60.518 25.068 61.031 25.805 61.031 27.28V34.435H66.144V26.783C66.144 22.99 64.63 21.093 61.602 21.093C59.964 21.093 58.756 21.723 57.979 22.981V21.366H52.866V34.435H57.979V34.435ZM73.958 40L82.247 21.366H76.91L74.378 28.05L72.12 21.366H66.536L71.971 33.168L68.944 40H73.958ZM87.628 34.708C89.266 34.708 90.623 34.348 91.698 33.628C92.774 32.907 93.312 31.859 93.312 30.484C93.229 28.629 91.847 27.238 89.167 26.311L87.727 25.714C87.413 25.614 87.19 25.516 87.057 25.416C86.996 25.3748 86.9461 25.3192 86.9115 25.2542C86.877 25.1891 86.859 25.1166 86.859 25.043C86.859 24.629 87.132 24.423 87.678 24.423C88.356 24.423 88.861 24.77 89.192 25.466L92.89 24.422C91.996 22.202 90.276 21.093 87.728 21.093C86.206 21.093 84.94 21.491 83.931 22.286C82.921 23.081 82.417 24.116 82.417 25.391C82.417 25.789 82.475 26.157 82.59 26.497C82.706 26.837 82.88 27.135 83.112 27.391C83.343 27.648 83.567 27.871 83.782 28.062C83.997 28.252 84.27 28.431 84.601 28.596C84.931 28.762 85.184 28.882 85.358 28.956C85.531 29.031 85.768 29.118 86.065 29.217L86.487 29.367L87.976 29.913C88.34 30.046 88.576 30.157 88.683 30.248C88.7355 30.2918 88.7772 30.347 88.8051 30.4094C88.833 30.4718 88.8463 30.5397 88.844 30.608C88.844 31.039 88.439 31.255 87.628 31.255C86.438 31.255 85.726 30.725 85.494 29.665L81.771 30.509C82.235 33.309 84.187 34.709 87.628 34.709V34.708ZM97.428 20.571C98.338 20.571 99.041 20.356 99.538 19.925C100.033 19.495 100.282 18.948 100.282 18.285C100.282 17.607 100.042 17.055 99.562 16.634C99.082 16.21 98.371 16 97.428 16C96.485 16 95.773 16.211 95.293 16.634C94.813 17.056 94.573 17.607 94.573 18.286C94.573 18.948 94.822 19.495 95.318 19.926C95.815 20.356 96.518 20.571 97.428 20.571V20.571ZM99.984 34.435V21.366H94.87V34.435H99.983H99.984ZM107.724 34.708C109.461 34.708 110.701 34.078 111.446 32.82V34.435H116.558V16.472H111.446V23.006C110.701 21.731 109.461 21.093 107.723 21.093C105.97 21.093 104.509 21.735 103.343 23.019C102.177 24.302 101.593 25.929 101.593 27.901C101.593 29.871 102.177 31.499 103.343 32.783C104.509 34.066 105.97 34.708 107.723 34.708H107.724ZM109.114 30.808C108.385 30.808 107.802 30.534 107.364 29.988C106.925 29.441 106.706 28.745 106.706 27.901C106.706 27.056 106.921 26.361 107.351 25.814C107.798 25.267 108.385 24.994 109.113 24.994C109.841 24.994 110.424 25.267 110.863 25.814C111.301 26.36 111.52 27.056 111.52 27.901C111.52 28.745 111.301 29.441 110.863 29.988C110.424 30.534 109.841 30.808 109.113 30.808H109.114ZM125.812 34.708C128.409 34.708 130.436 33.954 131.892 32.448L129.782 29.615C128.74 30.46 127.565 30.882 126.258 30.882C125.266 30.882 124.459 30.658 123.838 30.212C123.218 29.764 122.908 29.333 122.908 28.919H132.512C132.595 28.621 132.636 28.232 132.636 27.752C132.636 25.698 131.962 24.075 130.614 22.882C129.265 21.689 127.541 21.093 125.439 21.093C123.189 21.093 121.411 21.764 120.104 23.106C118.797 24.447 118.143 26.062 118.143 27.95C118.143 29.888 118.833 31.499 120.215 32.783C121.597 34.066 123.462 34.708 125.812 34.708V34.708ZM128.02 26.559H122.908C122.941 25.946 123.206 25.479 123.702 25.155C124.198 24.832 124.786 24.671 125.464 24.671C126.142 24.671 126.73 24.836 127.226 25.168C127.723 25.499 127.987 25.963 128.02 26.559Z" fill="#2F7764"/>
</svg>
